# xmcd
#
# Track frame offsets:
# 150
# 12022
# 25800
# 35862
# 47516
# 59496
# 71528
# 81325
# 91756
# 102271
# 116056
# 127507
#
# Disc length: 1857 seconds
#
#
# Revision: 0
# Processed by: cddbd v1.4PL0 Copyright (c) Steve Scherf et al.
# Submitted via: FreeRIP 2.40 
#
DISCID=92073f0c
DTITLE=Loretta Lynn - 36 All-Time Greatest HIts
DYEAR=1900
DGENRE=Country
TTITLE0=THE PILL
TTITLE1=WHEN THE TINGLE BECOMES A CHILL
TTITLE2=YOU AIN'T WOMAN ENOUGH
TTITLE3=LYIN', CHEATIN', WOMAN CHASIN', HONKY TONKIN', WHISKEY DRINKIN' YOU
TTITLE4=ONE'S ON THE WAY
TTITLE5=RATED "x"
TTITLE6=TROUBLE IN PARADISE
TTITLE7=THEY DON'T MAKE 'EM LIKE MY DADDY ANYMORE
TTITLE8=YOU'RE LOOKING AT COUNTRY
TTITLE9=SOMEBODY SOMEWHERE (DON'T KNOW WHAT HE'S MISSIN' TONIGHT)
TTITLE10=LOVE IS THE FOUNDATION
TTITLE11=WINGS UPON YOUR HORNS
EXTD=
EXTT0=
EXTT1=
EXTT2=
EXTT3=
EXTT4=
EXTT5=
EXTT6=
EXTT7=
EXTT8=
EXTT9=
EXTT10=
EXTT11=
PLAYORDER=
